<svg width="513" height="512" viewBox="0 0 513 512" fill="none" xmlns="http://www.w3.org/2000/svg">
<g clip-path="url(#clip0_105_2531)">
<path d="M379.014 31.128C342.643 11.284 300.929 0.000976562 256.579 0.000976562C212.229 0.000976562 170.515 11.284 134.144 31.128L111.883 256.001L134.144 480.874C170.515 500.718 212.229 512.001 256.579 512.001C300.929 512.001 342.643 500.718 379.014 480.874L401.275 256.001L379.014 31.128Z" fill="#FFDA44"/>
<path d="M134.143 480.872V31.127C54.5671 74.547 0.578125 158.966 0.578125 256.001C0.578125 353.036 54.5671 437.455 134.143 480.872Z" fill="#338AF3"/>
<path d="M512.577 256.001C512.577 158.966 458.588 74.547 379.012 31.127V480.872C458.588 437.455 512.577 353.036 512.577 256.001V256.001Z" fill="#6DA544"/>
<path d="M200.925 322.784L156.402 256.001L200.924 189.218L245.448 256.001L200.925 322.784Z" fill="#6DA544"/>
<path d="M312.229 322.784L267.707 256.001L312.229 189.218L356.751 256.001L312.229 322.784Z" fill="#6DA544"/>
<path d="M256.577 411.827L212.055 345.044L256.577 278.262L301.099 345.044L256.577 411.827Z" fill="#6DA544"/>
</g>
<defs>
<clipPath id="clip0_105_2531">
<rect width="512" height="512" fill="white" transform="translate(0.578125 0.000976562)"/>
</clipPath>
</defs>
</svg>
