<svg width="513" height="512" viewBox="0 0 513 512" fill="none" xmlns="http://www.w3.org/2000/svg">
<g clip-path="url(#clip0_105_1119)">
<path d="M512.988 256C512.988 224.686 507.356 194.689 497.065 166.957L256.988 155.826L16.9113 166.956C6.62128 194.689 0.988281 224.686 0.988281 256C0.988281 287.314 6.62128 317.311 16.9113 345.043L256.988 356.174L497.065 345.044C507.356 317.311 512.988 287.314 512.988 256Z" fill="#496E2D"/>
<path d="M256.989 512C367.06 512 460.895 442.528 497.066 345.043H16.9121C53.0831 442.528 146.918 512 256.989 512Z" fill="#D80027"/>
<path d="M16.9121 166.957H497.067C460.895 69.472 367.06 0 256.989 0C146.918 0 53.0831 69.472 16.9121 166.957V166.957Z" fill="#F0F0F0"/>
</g>
<defs>
<clipPath id="clip0_105_1119">
<rect width="512" height="512" fill="white" transform="translate(0.988281)"/>
</clipPath>
</defs>
</svg>
