<svg width="513" height="512" viewBox="0 0 513 512" fill="none" xmlns="http://www.w3.org/2000/svg">
<g clip-path="url(#clip0_105_2054)">
<path d="M256.988 512C398.373 512 512.988 397.385 512.988 256C512.988 114.615 398.373 0 256.988 0C115.603 0 0.988281 114.615 0.988281 256C0.988281 397.385 115.603 512 256.988 512Z" fill="#0052B4"/>
<path d="M256.988 512C398.373 512 512.988 397.385 512.988 256C512.988 114.615 398.373 0 256.988 0C115.603 0 0.988281 114.615 0.988281 256C0.988281 397.385 115.603 512 256.988 512Z" fill="#FFDA44"/>
<path d="M256.988 0C123.104 0 13.2459 102.781 1.96289 233.739H512.014C500.73 102.781 390.872 0 256.988 0V0Z" fill="#0052B4"/>
<path d="M256.988 512C390.872 512 500.73 409.219 512.014 278.261H1.96289C13.2459 409.219 123.104 512 256.988 512Z" fill="#0052B4"/>
<path d="M212.468 345.043L183.782 358.537L199.057 386.318L167.908 380.359L163.961 411.826L142.264 388.683L120.568 411.826L116.621 380.359L85.4706 386.317L100.747 358.536L72.0605 345.043L100.748 331.55L85.4706 303.77L116.62 309.728L120.569 278.261L142.264 301.404L163.962 278.261L167.908 309.728L199.058 303.77L183.783 331.551L212.468 345.043Z" fill="#F0F0F0"/>
</g>
<defs>
<clipPath id="clip0_105_2054">
<rect width="512" height="512" fill="white" transform="translate(0.988281)"/>
</clipPath>
</defs>
</svg>
