<svg width="512" height="513" viewBox="0 0 512 513" fill="none" xmlns="http://www.w3.org/2000/svg">
<g clip-path="url(#clip0_105_1812)">
<path d="M256 512.989C397.385 512.989 512 398.374 512 256.989C512 115.604 397.385 0.989258 256 0.989258C114.615 0.989258 0 115.604 0 256.989C0 398.374 114.615 512.989 256 512.989Z" fill="#F0F0F0"/>
<path d="M255.999 0.989258C137.72 0.989258 38.1944 81.2103 8.81836 190.206H503.181C473.804 81.2103 374.278 0.989258 255.999 0.989258Z" fill="#A2001D"/>
<path d="M255.999 512.989C374.278 512.989 473.804 432.768 503.18 323.772H8.81836C38.1944 432.767 137.72 512.989 255.999 512.989Z" fill="#A2001D"/>
</g>
<defs>
<clipPath id="clip0_105_1812">
<rect width="512" height="512" fill="white" transform="translate(0 0.989258)"/>
</clipPath>
</defs>
</svg>
