<svg width="513" height="512" viewBox="0 0 513 512" fill="none" xmlns="http://www.w3.org/2000/svg">
<g clip-path="url(#clip0_105_2071)">
<path d="M256.988 512C398.373 512 512.988 397.385 512.988 256C512.988 114.615 398.373 0 256.988 0C115.603 0 0.988281 114.615 0.988281 256C0.988281 397.385 115.603 512 256.988 512Z" fill="#F0F0F0"/>
<path d="M256.989 0C146.918 0 53.0831 69.472 16.9121 166.957H497.067C460.895 69.472 367.06 0 256.989 0V0Z" fill="#A2001D"/>
<path d="M256.989 512C367.06 512 460.895 442.528 497.066 345.043H16.9121C53.0831 442.528 146.918 512 256.989 512Z" fill="#0052B4"/>
</g>
<defs>
<clipPath id="clip0_105_2071">
<rect width="512" height="512" fill="white" transform="translate(0.988281)"/>
</clipPath>
</defs>
</svg>
