<svg width="513" height="512" viewBox="0 0 513 512" fill="none" xmlns="http://www.w3.org/2000/svg">
<g clip-path="url(#clip0_105_2566)">
<path d="M256.578 511.999C397.963 511.999 512.578 397.384 512.578 255.999C512.578 114.614 397.963 -0.000976562 256.578 -0.000976562C115.193 -0.000976562 0.578125 114.614 0.578125 255.999C0.578125 397.384 115.193 511.999 256.578 511.999Z" fill="#FFDA44"/>
<path d="M200.929 222.608H510.413C494.05 97.001 386.647 -0.000976562 256.58 -0.000976562C237.466 -0.000976562 218.847 2.11202 200.928 6.08402V222.608H200.929Z" fill="#0052B4"/>
<path d="M134.144 222.607V31.126C63.8501 69.48 13.5291 139.831 2.74609 222.608H134.144V222.607Z" fill="#0052B4"/>
<path d="M134.143 289.39H2.74609C13.5291 372.167 63.8501 442.518 134.144 480.871L134.143 289.39Z" fill="#0052B4"/>
<path d="M200.928 289.391V505.914C218.847 509.886 237.466 511.999 256.58 511.999C386.647 511.999 494.05 414.997 510.413 289.39H200.928V289.391Z" fill="#0052B4"/>
</g>
<defs>
<clipPath id="clip0_105_2566">
<rect width="512" height="512" fill="white" transform="translate(0.578125 -0.000976562)"/>
</clipPath>
</defs>
</svg>
