<svg width="512" height="512" viewBox="0 0 512 512" fill="none" xmlns="http://www.w3.org/2000/svg">
<g clip-path="url(#clip0_105_2445)">
<path d="M437.027 437.027C533.038 341.016 536.829 187.731 448.44 87.1719L256 255.999L87.1719 448.44C187.731 536.829 341.015 533.038 437.027 437.027V437.027Z" fill="#496E2D"/>
<path d="M74.9735 74.974C170.985 -21.037 324.27 -24.828 424.829 63.561L256 256.003L63.5615 424.829C-24.8285 324.27 -21.0365 170.985 74.9735 74.974V74.974Z" fill="#0052B4"/>
<path d="M424.828 63.5601L63.5605 424.828C67.2125 428.983 71.0045 433.059 74.9735 437.026C78.9415 440.994 83.0185 444.786 87.1745 448.44L448.44 87.1721C444.788 83.0161 440.995 78.9401 437.026 74.9711C433.06 71.0051 428.983 67.2121 424.828 63.5601V63.5601Z" fill="#FFDA44"/>
<path d="M107.86 89.0359L113.387 106.043H131.268L116.802 116.552L122.327 133.559L107.86 123.048L93.3931 133.559L98.9201 116.552L84.4531 106.043H102.335L107.86 89.0359Z" fill="#F0F0F0"/>
<path d="M199.2 89.0359L204.727 106.043H222.607L208.141 116.552L213.667 133.559L199.2 123.048L184.733 133.559L190.26 116.552L175.793 106.043H193.674L199.2 89.0359Z" fill="#F0F0F0"/>
<path d="M107.86 178.083L113.387 195.09H131.268L116.802 205.6L122.327 222.607L107.86 212.096L93.3931 222.607L98.9201 205.6L84.4531 195.09H102.335L107.86 178.083Z" fill="#F0F0F0"/>
<path d="M199.2 178.083L204.727 195.09H222.607L208.141 205.6L213.667 222.607L199.2 212.096L184.733 222.607L190.26 205.6L175.793 195.09H193.674L199.2 178.083Z" fill="#F0F0F0"/>
<path d="M153.531 133.559L159.058 150.566H176.938L162.472 161.076L167.998 178.083L153.531 167.572L139.064 178.083L144.59 161.076L130.123 150.566H148.005L153.531 133.559Z" fill="#F0F0F0"/>
</g>
<defs>
<clipPath id="clip0_105_2445">
<rect width="512.001" height="512.001" fill="white"/>
</clipPath>
</defs>
</svg>
