<svg width="512" height="512" viewBox="0 0 512 512" fill="none" xmlns="http://www.w3.org/2000/svg">
<g clip-path="url(#clip0_105_1416)">
<path d="M256 512.001C397.385 512.001 512 397.386 512 256.001C512 114.616 397.385 0.000976562 256 0.000976562C114.615 0.000976562 0 114.616 0 256.001C0 397.386 114.615 512.001 256 512.001Z" fill="#FFDA44"/>
<path d="M255.999 0.000976562C193.322 0.000976562 135.916 22.538 91.4141 59.935L367.303 256.001L91.4141 452.067C135.916 489.464 193.322 512.001 255.999 512.001C397.383 512.001 511.999 397.385 511.999 256.001C511.999 114.617 397.383 0.000976562 255.999 0.000976562Z" fill="#D80027"/>
<path d="M74.9805 74.981C-24.9935 174.955 -24.9935 337.046 74.9805 437.021C116.293 395.708 156.026 355.975 256 256.001L74.9805 74.981Z" fill="black"/>
<path d="M70.9797 197.356L109.94 234.228L157.048 208.564L134.023 257.014L172.984 293.887L119.79 286.959L96.7617 335.408L86.9147 282.676L33.7207 275.746L80.8267 250.085L70.9797 197.356Z" fill="#F0F0F0"/>
</g>
<defs>
<clipPath id="clip0_105_1416">
<rect width="512" height="512" fill="white" transform="translate(0 0.000976562)"/>
</clipPath>
</defs>
</svg>
