<svg width="513" height="512" viewBox="0 0 513 512" fill="none" xmlns="http://www.w3.org/2000/svg">
<g clip-path="url(#clip0_105_2539)">
<path d="M25.9801 144.696C9.70613 178.352 0.578125 216.109 0.578125 256C0.578125 295.891 9.70613 333.648 25.9801 367.304L256.578 389.565L487.176 367.304C503.45 333.648 512.578 295.891 512.578 256C512.578 216.109 503.45 178.352 487.176 144.696L256.578 122.435L25.9801 144.696Z" fill="#F0F0F0"/>
<path d="M25.9883 367.304C67.3943 452.935 155.083 512 256.577 512C358.071 512 445.76 452.935 487.166 367.304H25.9883Z" fill="black"/>
<path d="M25.9883 144.696H487.166C445.76 59.065 358.071 0 256.577 0C155.083 0 67.3943 59.065 25.9883 144.696Z" fill="#D80027"/>
<path d="M75.5586 74.98C-24.4154 174.954 -24.4154 337.045 75.5586 437.02C116.872 395.707 156.605 355.974 256.579 256L75.5586 74.98Z" fill="#496E2D"/>
</g>
<defs>
<clipPath id="clip0_105_2539">
<rect width="512" height="512" fill="white" transform="translate(0.578125)"/>
</clipPath>
</defs>
</svg>
