<svg width="512" height="513" viewBox="0 0 512 513" fill="none" xmlns="http://www.w3.org/2000/svg">
<g clip-path="url(#clip0_105_1461)">
<path d="M0 256.989C0 288.305 5.633 318.301 15.924 346.035L256 368.293L496.076 346.034C506.368 318.301 512 288.304 512 256.989C512 226.104 506.529 196.497 496.506 169.084L256 145.685L15.494 169.085C5.471 196.497 0 226.104 0 256.989H0Z" fill="#FFDA44"/>
<path d="M256.001 512.989C366.072 512.989 459.907 443.517 496.078 346.032H15.9238C52.0948 443.517 145.93 512.989 256.001 512.989Z" fill="#D80027"/>
<path d="M256.001 0.989258C145.93 0.989258 52.0948 70.4613 15.9238 167.946H496.079C459.907 70.4613 366.072 0.989258 256.001 0.989258V0.989258Z" fill="#6DA544"/>
<path d="M255.999 379.424C323.618 379.424 378.434 324.608 378.434 256.989C378.434 189.37 323.618 134.554 255.999 134.554C188.38 134.554 133.564 189.37 133.564 256.989C133.564 324.608 188.38 379.424 255.999 379.424Z" fill="#0052B4"/>
<path d="M255.974 162.18L278.076 230.202H349.713L291.735 272.243L314.011 340.467L255.974 298.226L198.026 340.389L220.212 272.243L162.287 230.202H233.872L255.974 162.18Z" fill="#FFDA44"/>
<path d="M344.125 273.919L274.009 251.135L317.342 191.495L299.334 178.409L255.999 238.053L212.668 178.41L194.658 191.494L237.99 251.139L167.877 273.918L174.755 295.091L244.871 272.31V346.032H267.131V272.309L337.244 295.091L344.125 273.919Z" fill="#FFDA44"/>
</g>
<defs>
<clipPath id="clip0_105_1461">
<rect width="512" height="512" fill="white" transform="translate(0 0.989258)"/>
</clipPath>
</defs>
</svg>
