<svg width="512" height="513" viewBox="0 0 512 513" fill="none" xmlns="http://www.w3.org/2000/svg">
<g clip-path="url(#clip0_105_1377)">
<path d="M256 512.989C397.385 512.989 512 398.374 512 256.989C512 115.604 397.385 0.989258 256 0.989258C114.615 0.989258 0 115.604 0 256.989C0 398.374 114.615 512.989 256 512.989Z" fill="#F0F0F0"/>
<path d="M306.086 508.076C407.289 488 487.01 408.278 507.086 307.076H306.086V508.076Z" fill="#496E2D"/>
<path d="M4.91211 307.076C24.9871 408.278 104.709 488 205.912 508.076V307.076H4.91211Z" fill="#496E2D"/>
<path d="M507.086 206.902C487.01 105.7 407.289 25.9783 306.086 5.90225V206.902H507.086Z" fill="#496E2D"/>
<path d="M205.912 5.90225C104.709 25.9783 24.9871 105.7 4.91211 206.902H205.912V5.90225Z" fill="#496E2D"/>
<path d="M239.303 307.076H205.912V508.076C216.809 510.237 227.956 511.701 239.303 512.432V307.076Z" fill="#FFDA44"/>
<path d="M239.303 206.902V1.54626C227.956 2.27626 216.808 3.74126 205.912 5.90226V206.902H239.303Z" fill="#FFDA44"/>
<path d="M272.697 1.54626C267.175 1.18926 261.612 0.989258 256.001 0.989258C250.39 0.989258 244.827 1.18926 239.305 1.54626V206.903H272.696V1.54626H272.697Z" fill="black"/>
<path d="M239.305 512.432C244.827 512.789 250.39 512.989 256.001 512.989C261.612 512.989 267.175 512.789 272.697 512.432V307.076H239.306V512.432H239.305Z" fill="black"/>
<path d="M205.913 240.293V206.902H4.91264C2.75064 217.8 1.28664 228.946 0.556641 240.293H205.913Z" fill="#FFDA44"/>
<path d="M306.086 240.293H511.443C510.713 228.946 509.248 217.8 507.087 206.902H306.087V240.293H306.086Z" fill="#FFDA44"/>
<path d="M306.088 273.685H511.445C511.801 268.164 512.001 262.6 512.001 256.989C512.001 251.378 511.801 245.814 511.444 240.293H306.088V273.685Z" fill="black"/>
<path d="M0.557 240.293C0.201 245.814 0 251.378 0 256.989C0 262.6 0.201 268.164 0.557 273.685H205.914V240.294H0.557V240.293Z" fill="black"/>
<path d="M255.999 379.424C323.618 379.424 378.434 324.608 378.434 256.989C378.434 189.37 323.618 134.554 255.999 134.554C188.38 134.554 133.564 189.37 133.564 256.989C133.564 324.608 188.38 379.424 255.999 379.424Z" fill="#D80027"/>
<path d="M283.893 270.649C274.786 252.436 262.949 233.976 262.949 233.976C262.949 233.976 263.243 225.571 263.243 220.563C263.243 213.019 257.127 206.903 249.583 206.903C242.436 206.903 236.58 212.394 235.983 219.385C230.363 219.752 225.916 224.414 225.916 230.126C225.916 234.279 228.269 237.878 231.713 239.677C233.425 235.673 236.777 232.547 240.923 231.122C241.599 231.675 242.325 232.169 243.1 232.588L244.85 233.426C244.85 233.426 238.361 251.717 238.361 261.543C238.361 289.167 256.575 297.686 256.575 297.686V297.971L247.468 307.077H265.681V288.863L274.788 297.97C274.868 297.799 292.038 286.94 283.893 270.649V270.649Z" fill="#496E2D"/>
<path d="M255.999 156.815L260.143 169.569H273.553L262.704 177.452L266.849 190.206L255.999 182.324L245.149 190.206L249.294 177.452L238.445 169.569H251.855L255.999 156.815Z" fill="#496E2D"/>
<path d="M197.12 175.947L207.968 183.83L218.818 175.946L214.674 188.702L225.524 196.583L212.113 196.584L207.969 209.338L203.824 196.584L190.414 196.583L201.263 188.7L197.12 175.947Z" fill="#496E2D"/>
<path d="M160.729 226.034H174.138L178.283 213.28L182.427 226.034L195.838 226.033L184.989 233.917L189.134 246.671L178.283 238.788L167.434 246.67L171.577 233.916L160.729 226.034Z" fill="#496E2D"/>
<path d="M160.729 287.944L171.577 280.063L167.433 267.308L178.283 275.191L189.133 267.308L184.989 280.062L195.839 287.945L182.427 287.946L178.283 300.699L174.138 287.944H160.729Z" fill="#496E2D"/>
<path d="M197.119 338.031L201.262 325.279L190.412 317.396H203.823L207.968 304.641L212.112 317.395H225.523L214.673 325.279L218.817 338.032L207.967 330.149L197.119 338.031Z" fill="#496E2D"/>
<path d="M255.999 357.163L251.855 344.411H238.445L249.294 336.527L245.149 323.773L255.999 331.654L266.848 323.772L262.704 336.527L273.553 344.41L260.143 344.411L255.999 357.163Z" fill="#496E2D"/>
<path d="M314.879 338.031L304.031 330.149L293.182 338.033L297.325 325.279L286.475 317.396L299.886 317.395L304.029 304.641L308.175 317.396H321.585L310.736 325.279L314.879 338.031Z" fill="#496E2D"/>
<path d="M351.27 287.944H337.861L333.716 300.699L329.572 287.946H316.16L327.01 280.062L322.865 267.309L333.716 275.191L344.564 267.309L340.422 280.063L351.27 287.944Z" fill="#496E2D"/>
<path d="M351.27 226.034L340.422 233.916L344.565 246.67L333.716 238.788L322.866 246.672L327.01 233.917L316.16 226.035L329.572 226.033L333.715 213.281L337.861 226.034H351.27Z" fill="#496E2D"/>
<path d="M314.879 175.947L310.736 188.7L321.585 196.583H308.175L304.031 209.338L299.886 196.584L286.475 196.585L297.325 188.7L293.181 175.948L304.031 183.829L314.879 175.947Z" fill="#496E2D"/>
</g>
<defs>
<clipPath id="clip0_105_1377">
<rect width="512" height="512" fill="white" transform="translate(0 0.989258)"/>
</clipPath>
</defs>
</svg>
