<svg width="512" height="513" viewBox="0 0 512 513" fill="none" xmlns="http://www.w3.org/2000/svg">
<g clip-path="url(#clip0_105_2782)">
<path d="M256 512.581C397.385 512.581 512 397.966 512 256.581C512 115.196 397.385 0.581055 256 0.581055C114.615 0.581055 0 115.196 0 256.581C0 397.966 114.615 512.581 256 512.581Z" fill="#F0F0F0"/>
<path d="M256 189.798H503.181C496.762 165.984 487.006 143.543 474.426 123.015H256V189.798Z" fill="#338AF3"/>
<path d="M96.6432 456.929H415.356C438.719 438.321 458.755 415.719 474.425 390.146H37.5742C53.2452 415.718 73.2812 438.321 96.6432 456.929V456.929Z" fill="#338AF3"/>
<path d="M256 0.581055V56.2331H415.357C371.627 21.4051 316.249 0.581055 256 0.581055V0.581055Z" fill="#338AF3"/>
<path d="M256 189.798H503.181C496.762 165.984 487.006 143.543 474.426 123.015H256V189.798Z" fill="#338AF3"/>
<path d="M0 256.581C0 279.688 3.08 302.07 8.819 323.364H503.182C508.92 302.07 512 279.688 512 256.581H0Z" fill="#338AF3"/>
<path d="M222.608 150.402L191.342 165.109L207.991 195.389L174.041 188.895L169.739 223.19L146.093 197.966L122.445 223.19L118.144 188.895L84.1941 195.387L100.842 165.108L69.5781 150.402L100.843 135.697L84.1941 105.417L118.143 111.911L122.446 77.6162L146.093 102.84L169.74 77.6162L174.041 111.911L207.992 105.417L191.343 135.698L222.608 150.402Z" fill="#FFDA44"/>
</g>
<defs>
<clipPath id="clip0_105_2782">
<rect width="512" height="512" fill="white" transform="translate(0 0.581055)"/>
</clipPath>
</defs>
</svg>
