<svg width="512" height="512" viewBox="0 0 512 512" fill="none" xmlns="http://www.w3.org/2000/svg">
<g clip-path="url(#clip0_105_1480)">
<path d="M512 256.001C512 397.385 397.384 512.001 256 512.001C114.616 512.001 0 397.385 0 256.001C0 256.062 256 0.0289766 256 0.000976562C397.384 0.000976562 512 114.617 512 256.001Z" fill="#0052B4"/>
<path d="M255.314 256.001H255.999C255.999 255.771 255.999 255.547 255.999 255.316C255.771 255.545 255.543 255.773 255.314 256.001Z" fill="#F0F0F0"/>
<path d="M256 133.566C256 88.521 256 59.006 256 0.000976562H255.957C114.592 0.0249766 0 114.63 0 256.001H133.565V180.79L208.777 256.001H255.316L256.001 255.316C256.001 238.069 256.001 222.68 256.001 208.779L180.788 133.566H256Z" fill="#F0F0F0"/>
<path d="M129.515 33.392C89.4756 56.191 56.1896 89.477 33.3906 129.516V256.001H100.174V100.177V100.175H256C256 79.112 256 59.046 256 33.392H129.515Z" fill="#D80027"/>
<path d="M256 224.52L165.047 133.567H133.566V133.569L255.998 256.001H256C256 256.001 256 234.294 256 224.52Z" fill="#D80027"/>
<path d="M411.826 300.523V311.653H322.783V300.523H289.391V345.044H311.652V356.175H422.957V345.044H445.217V300.523H411.826Z" fill="#FFDA44"/>
<path d="M289.391 133.566V256.001C289.391 315.64 367.304 333.914 367.304 333.914C367.304 333.914 445.217 315.64 445.217 256.001V133.566H289.391Z" fill="#338AF3"/>
<path d="M367.301 224.89C347.824 224.89 347.824 242.699 328.347 242.699C308.87 242.699 308.87 224.89 289.393 224.89V256.055C308.87 256.055 308.87 273.864 328.347 273.864C347.824 273.864 347.824 256.055 367.301 256.055C386.78 256.055 386.78 273.864 406.26 273.864C425.74 273.864 425.739 256.055 445.219 256.055V224.89C425.74 224.89 425.74 242.699 406.26 242.699C386.78 242.699 386.78 224.89 367.301 224.89V224.89Z" fill="#F3F3F3"/>
<path d="M367.301 162.505C347.824 162.505 347.824 180.314 328.347 180.314C308.87 180.314 308.87 162.505 289.393 162.505V193.67C308.87 193.67 308.87 211.479 328.347 211.479C347.824 211.479 347.824 193.67 367.301 193.67C386.78 193.67 386.78 211.479 406.26 211.479C425.74 211.479 425.739 193.67 445.219 193.67V162.505C425.74 162.505 425.74 180.314 406.26 180.314C386.78 180.314 386.78 162.505 367.301 162.505Z" fill="#F3F3F3"/>
</g>
<defs>
<clipPath id="clip0_105_1480">
<rect width="512" height="512" fill="white" transform="translate(0 0.000976562)"/>
</clipPath>
</defs>
</svg>
