<svg width="512" height="512" viewBox="0 0 512 512" fill="none" xmlns="http://www.w3.org/2000/svg">
<g clip-path="url(#clip0_105_2432)">
<path d="M256 512.001C397.385 512.001 512 397.386 512 256.001C512 114.616 397.385 0.000976562 256 0.000976562C114.615 0.000976562 0 114.616 0 256.001C0 397.386 114.615 512.001 256 512.001Z" fill="#F0F0F0"/>
<path d="M256 512.001C397.384 512.001 512 397.385 512 256.001C512 224.687 506.368 194.69 496.077 166.958H15.923C5.633 194.69 0 224.687 0 256.001C0 397.385 114.616 512.001 256 512.001Z" fill="#0052B4"/>
<path d="M256.001 512.001C366.072 512.001 459.907 442.529 496.078 345.044H15.9238C52.0948 442.529 145.93 512.001 256.001 512.001Z" fill="#D80027"/>
<path d="M66.1973 144.697V272.403C66.1973 345.047 161.098 367.306 161.098 367.306C161.098 367.306 255.998 345.047 255.998 272.403V144.697H66.1973Z" fill="#F0F0F0"/>
<path d="M88.459 144.697V272.403C88.459 280.931 90.353 288.985 94.105 296.536H228.092C231.844 288.986 233.738 280.931 233.738 272.403V144.697H88.459Z" fill="#D80027"/>
<path d="M205.619 233.74H172.229V211.479H194.49V189.218H172.229V166.958H149.968V189.218H127.708V211.479H149.968V233.74H116.576V256.001H149.968V278.262H172.229V256.001H205.619V233.74Z" fill="#F0F0F0"/>
<path d="M124.47 327.611C138.815 336.626 153.553 341.86 161.098 344.188C168.643 341.861 183.381 336.626 197.726 327.611C212.192 318.519 222.333 308.121 228.091 296.536C221.74 292.043 213.991 289.393 205.62 289.393C202.572 289.393 199.611 289.754 196.764 290.417C190.731 276.709 177.036 267.132 161.099 267.132C145.162 267.132 131.466 276.709 125.434 290.417C122.587 289.754 119.625 289.393 116.578 289.393C108.207 289.393 100.458 292.043 94.1074 296.536C99.8624 308.12 110.003 318.518 124.47 327.611Z" fill="#0052B4"/>
</g>
<defs>
<clipPath id="clip0_105_2432">
<rect width="512" height="512" fill="white" transform="translate(0 0.000976562)"/>
</clipPath>
</defs>
</svg>
