<svg width="513" height="512" viewBox="0 0 513 512" fill="none" xmlns="http://www.w3.org/2000/svg">
<g clip-path="url(#clip0_105_2544)">
<path d="M256.578 512C397.963 512 512.578 397.385 512.578 256C512.578 114.615 397.963 0 256.578 0C115.193 0 0.578125 114.615 0.578125 256C0.578125 397.385 115.193 512 256.578 512Z" fill="#F0F0F0"/>
<path d="M496.654 166.957H16.5001C6.21113 194.691 0.578125 224.686 0.578125 256C0.578125 287.314 6.21113 317.311 16.5001 345.043H496.655C506.946 317.311 512.578 287.314 512.578 256C512.578 224.686 506.946 194.691 496.654 166.957Z" fill="#A2001D"/>
<path d="M257.32 512C345.002 512 422.378 467.908 468.516 400.696H46.125C92.263 467.908 169.637 512 257.32 512Z" fill="#6DA544"/>
<path d="M257.32 0.00195312C345.002 0.00195312 422.378 44.094 468.516 111.306H46.125C92.263 44.094 169.637 0.00195312 257.32 0.00195312V0.00195312Z" fill="#6DA544"/>
<path d="M256.577 166.957L278.678 234.977H350.203L292.339 277.021L314.442 345.043L256.577 303.004L198.712 345.043L220.816 277.021L162.951 234.977H234.476L256.577 166.957Z" fill="#FFDA44"/>
</g>
<defs>
<clipPath id="clip0_105_2544">
<rect width="512" height="512" fill="white" transform="translate(0.578125)"/>
</clipPath>
</defs>
</svg>
