<svg width="513" height="512" viewBox="0 0 513 512" fill="none" xmlns="http://www.w3.org/2000/svg">
<g clip-path="url(#clip0_105_2097)">
<path d="M26.3903 144.696C10.1163 178.352 0.988281 216.109 0.988281 256C0.988281 295.891 10.1163 333.648 26.3903 367.304L256.988 389.565L487.586 367.304C503.86 333.648 512.988 295.891 512.988 256C512.988 216.109 503.86 178.352 487.586 144.696L256.988 122.435L26.3903 144.696Z" fill="#F0F0F0"/>
<path d="M26.3984 367.304C67.8044 452.935 155.493 512 256.987 512C358.481 512 446.17 452.935 487.576 367.304H26.3984Z" fill="#6DA544"/>
<path d="M26.3984 144.696H487.576C446.17 59.065 358.48 0 256.987 0C155.494 0 67.8044 59.065 26.3984 144.696Z" fill="#FF9811"/>
<path d="M256.988 345.043C306.165 345.043 346.031 305.177 346.031 256C346.031 206.823 306.165 166.957 256.988 166.957C207.811 166.957 167.945 206.823 167.945 256C167.945 305.177 207.811 345.043 256.988 345.043Z" fill="#FF9811"/>
</g>
<defs>
<clipPath id="clip0_105_2097">
<rect width="512" height="512" fill="white" transform="translate(0.988281)"/>
</clipPath>
</defs>
</svg>
