<svg width="512" height="512" viewBox="0 0 512 512" fill="none" xmlns="http://www.w3.org/2000/svg">
<g clip-path="url(#clip0_105_1747)">
<path d="M256 512.001C397.385 512.001 512 397.386 512 256.001C512 114.616 397.385 0.000976562 256 0.000976562C114.615 0.000976562 0 114.616 0 256.001C0 397.386 114.615 512.001 256 512.001Z" fill="#F0F0F0"/>
<path d="M155.825 166.958H496.075C459.905 69.473 366.069 0.000976562 255.999 0.000976562C185.305 0.000976562 121.312 28.66 74.9883 74.99L155.825 166.958Z" fill="black"/>
<path d="M155.825 345.044H496.075C459.905 442.529 366.069 512.001 255.999 512.001C185.305 512.001 121.312 483.342 74.9883 437.012L155.825 345.044Z" fill="#6DA544"/>
<path d="M74.9805 74.981C-24.9935 174.955 -24.9935 337.046 74.9805 437.021C116.293 395.708 156.026 355.975 256 256.001L74.9805 74.981Z" fill="#D80027"/>
<path d="M101.604 200.349L115.653 229.728L147.382 222.395L133.172 251.696L158.687 271.93L126.92 279.089L127.008 311.653L101.604 291.28L76.1995 311.653L76.2885 279.089L44.5215 271.93L70.0355 251.696L55.8275 222.395L87.5545 229.728L101.604 200.349Z" fill="#F0F0F0"/>
</g>
<defs>
<clipPath id="clip0_105_1747">
<rect width="512" height="512" fill="white" transform="translate(0 0.000976562)"/>
</clipPath>
</defs>
</svg>
