<svg width="512" height="522" viewBox="0 0 512 522" fill="none" xmlns="http://www.w3.org/2000/svg">
<g clip-path="url(#clip0_105_2736)">
<path d="M446.793 434.999C487.336 388.823 512 327.853 512 261C512 194.147 487.335 133.176 446.792 86.9997L256 68.0874L65.208 86.9997C24.665 133.176 0 194.147 0 261C0 327.853 24.664 388.823 65.207 434.999L256 453.913L446.793 434.999Z" fill="#FFDA44"/>
<path d="M65.207 86.9997H446.792C399.917 33.6099 331.812 0 255.999 0C180.186 0 112.081 33.6099 65.207 86.9997Z" fill="black"/>
<path d="M0 261L256 283.696L512 261C512 230.492 506.849 201.213 497.412 174H14.588C5.151 201.213 0 230.492 0 261H0Z" fill="#D80027"/>
<path d="M14.588 348H497.414C506.849 320.786 512 291.508 512 261H0C0 291.508 5.151 320.786 14.588 348V348Z" fill="black"/>
<path d="M446.793 435H65.207C112.081 488.39 180.186 522 256 522C331.814 522 399.919 488.39 446.793 435Z" fill="#D80027"/>
<path d="M341.426 261C341.426 309.105 303.183 348.095 256 348.095C208.817 348.095 170.574 309.105 170.574 261C170.574 212.896 208.817 173.906 256 173.906C303.183 173.906 341.426 212.896 341.426 261Z" fill="#F0F0F0"/>
<path d="M287.295 265.441L256 251.615C256 251.615 263.322 226.837 263.712 225.142C263.997 223.903 264.149 222.611 264.149 221.284C264.149 216.583 262.28 212.327 259.258 209.248L267.128 201.225C262.093 196.091 255.136 192.916 247.452 192.916C239.768 192.916 232.811 196.09 227.776 201.225L235.646 209.248C232.624 212.328 230.756 216.584 230.756 221.284C230.756 223.003 231.011 224.66 231.476 226.225L219.627 238.304H241.163C241.163 238.304 232.259 251.939 227.398 263.137C222.537 274.333 227.465 288.002 238.699 293.094L245.195 296.037L256 306.391V317.739L244.87 329.086H267.131V306.39L277.288 296.035H298.296C298.397 295.822 298.503 295.614 298.599 295.396C303.59 283.943 298.53 270.53 287.295 265.441Z" fill="black"/>
</g>
<defs>
<clipPath id="clip0_105_2736">
<rect width="512" height="522" fill="white"/>
</clipPath>
</defs>
</svg>
