<svg width="512" height="513" viewBox="0 0 512 513" fill="none" xmlns="http://www.w3.org/2000/svg">
<g clip-path="url(#clip0_105_1298)">
<path d="M256 512.989C397.385 512.989 512 398.374 512 256.989C512 115.604 397.385 0.989258 256 0.989258C114.615 0.989258 0 115.604 0 256.989C0 398.374 114.615 512.989 256 512.989Z" fill="#FCFCFC"/>
<path d="M345.137 217.822C345.137 163.678 301.245 119.787 247.102 119.787C207.148 119.787 172.801 143.697 157.529 177.981L145.438 221.816L156.568 232.946L134.307 277.468L156.568 288.598L145.438 299.728V310.858L156.568 321.988V344.249L167.698 355.379L201.089 344.249C201.089 344.249 201.089 355.379 212.219 366.51C223.349 377.64 234.481 399.902 234.481 399.902C234.481 399.902 267.872 411.032 290.133 377.641C312.394 344.25 334.655 333.119 334.655 333.119L313.199 290.205C332.821 272.282 345.137 246.495 345.137 217.822V217.822Z" fill="black"/>
<path d="M353.127 255.311C398.356 247.682 405.89 159.116 405.89 159.116H343.56C375.838 237.029 342.053 242.27 342.053 242.27C337.476 238.865 173.678 161.269 168.486 159.296C167.235 160.97 162.63 165.367 157.032 179.057C151.433 192.747 150.059 205.063 150.059 205.063C152.681 206.772 326.634 267.513 331.232 268.019C340.357 273.985 351.585 291.826 345.31 344.724L405.304 327.816C405.306 327.816 384.945 273.653 353.127 255.311V255.311Z" fill="#ACABB1"/>
</g>
<defs>
<clipPath id="clip0_105_1298">
<rect width="512" height="512" fill="white" transform="translate(0 0.989258)"/>
</clipPath>
</defs>
</svg>
