<svg width="512" height="513" viewBox="0 0 512 513" fill="none" xmlns="http://www.w3.org/2000/svg">
<g clip-path="url(#clip0_105_2813)">
<path d="M512 256.002C512 244.685 511.257 233.541 509.833 222.611H222.607C170.306 170.313 74.9765 74.9899 74.9805 74.9819C-24.9935 174.956 -24.9935 337.046 74.9805 437.022L222.609 289.394H509.833C511.256 278.463 512 267.319 512 256.002V256.002Z" fill="black"/>
<path d="M511.927 261.824C511.916 262.318 511.905 262.814 511.891 263.308C511.903 262.812 511.915 262.318 511.927 261.824Z" fill="#F0F0F0"/>
<path d="M511.681 268.82C511.658 269.309 511.624 269.796 511.598 270.284C511.624 269.797 511.656 269.309 511.681 268.82Z" fill="#F0F0F0"/>
<path d="M511.335 274.4C511.284 275.119 511.234 275.838 511.176 276.555C511.234 275.838 511.283 275.119 511.335 274.4Z" fill="#F0F0F0"/>
<path d="M510.48 228.1C510.574 228.956 510.668 229.811 510.753 230.669C510.668 229.81 510.573 228.956 510.48 228.1Z" fill="#F0F0F0"/>
<path d="M511.596 241.719C511.623 242.207 511.656 242.694 511.679 243.183C511.655 242.694 511.623 242.206 511.596 241.719Z" fill="#F0F0F0"/>
<path d="M511.889 248.697C511.903 249.191 511.913 249.687 511.925 250.181C511.914 249.685 511.902 249.191 511.889 248.697Z" fill="#F0F0F0"/>
<path d="M511.176 235.448C511.234 236.165 511.284 236.884 511.335 237.603C511.283 236.884 511.234 236.165 511.176 235.448Z" fill="#F0F0F0"/>
<path d="M509.834 222.61C509.949 223.487 510.051 224.369 510.156 225.248C494.962 98.3659 386.976 0.00195312 256.001 0.00195312C185.307 0.00195312 121.306 28.657 74.9785 74.986L222.603 222.611H509.834V222.61Z" fill="#D80027"/>
<path d="M509.834 289.393H222.603L74.9785 437.018C121.306 483.346 185.307 512.002 256.001 512.002C386.976 512.002 494.963 413.638 510.156 286.755C510.051 287.634 509.947 288.516 509.834 289.393V289.393Z" fill="#6DA544"/>
<path d="M510.753 281.334C510.668 282.192 510.574 283.047 510.48 283.903C510.574 283.047 510.669 282.193 510.753 281.334Z" fill="#F0F0F0"/>
<path d="M511.336 237.603C511.433 238.972 511.521 240.344 511.596 241.719C511.52 240.344 511.433 238.972 511.336 237.603V237.603Z" fill="black"/>
<path d="M510.154 225.248C510.269 226.197 510.378 227.148 510.48 228.1C510.376 227.148 510.267 226.198 510.154 225.248Z" fill="black"/>
<path d="M510.754 230.669C510.91 232.258 511.051 233.851 511.178 235.45C511.052 233.851 510.911 232.257 510.754 230.669Z" fill="black"/>
<path d="M512.001 256.002C512.001 257.949 511.971 259.888 511.928 261.823C511.971 259.887 512.001 257.948 512.001 256.002Z" fill="black"/>
<path d="M511.598 270.284C511.522 271.659 511.434 273.031 511.338 274.4C511.434 273.031 511.521 271.659 511.598 270.284Z" fill="black"/>
<path d="M511.178 276.555C511.051 278.152 510.91 279.746 510.754 281.334C510.911 279.746 511.052 278.152 511.178 276.555Z" fill="black"/>
<path d="M510.48 283.903C510.378 284.855 510.269 285.805 510.154 286.755C510.267 285.806 510.376 284.855 510.48 283.903Z" fill="black"/>
<path d="M511.928 250.18C511.971 252.116 512.001 254.056 512.001 256.001C512.001 254.056 511.971 252.116 511.928 250.18Z" fill="black"/>
<path d="M511.682 243.183C511.772 245.015 511.84 246.854 511.892 248.696C511.84 246.853 511.773 245.015 511.682 243.183Z" fill="black"/>
<path d="M511.89 263.308C511.838 265.15 511.77 266.989 511.68 268.821C511.772 266.988 511.839 265.15 511.89 263.308Z" fill="black"/>
<path d="M511.756 244.779H213.201L59.8444 91.4448C54.8874 96.6728 49.5144 103.973 46.1914 109.172L192.85 255.908L46.0684 402.693C48.9744 407.863 55.3054 415.515 59.7504 420.494L213.204 267.04H511.792C511.951 263.348 512.001 259.64 512.001 255.91C512 250.912 511.862 247.227 511.756 244.779Z" fill="#FFDA44"/>
<path d="M62.1866 310.574V289.131C83.5846 289.131 100.992 271.722 100.992 250.326C100.992 235.187 88.6746 222.871 73.5366 222.871C63.2236 222.871 54.8326 231.261 54.8326 241.576C54.8326 248.171 60.1976 253.537 66.7936 253.537C70.5216 253.537 73.5546 250.502 73.5546 246.774H94.9966C94.9966 262.327 82.3446 274.979 66.7946 274.979C48.3756 274.98 33.3926 259.994 33.3926 241.578C33.3926 219.441 51.4026 201.432 73.5376 201.432C100.5 201.432 122.436 223.368 122.436 250.329C122.435 283.546 95.4076 310.574 62.1866 310.574V310.574Z" fill="#FFDA44"/>
</g>
<defs>
<clipPath id="clip0_105_2813">
<rect width="512.001" height="512.001" fill="white" transform="translate(0 0.000976562)"/>
</clipPath>
</defs>
</svg>
