<svg width="512" height="512" viewBox="0 0 512 512" fill="none" xmlns="http://www.w3.org/2000/svg">
<g clip-path="url(#clip0_105_2747)">
<path d="M256 511.999C397.385 511.999 512 397.384 512 255.999C512 114.614 397.385 -0.000976562 256 -0.000976562C114.615 -0.000976562 0 114.614 0 255.999C0 397.384 114.615 511.999 256 511.999Z" fill="#F0F0F0"/>
<path d="M144.695 345.042L166.956 496.078C194.688 506.369 224.685 511.999 255.999 511.999C366.069 511.999 459.905 442.527 496.075 345.042H144.695Z" fill="black"/>
<path d="M144.695 166.956L166.956 15.92C194.688 5.62902 224.685 -0.000976562 255.999 -0.000976562C366.069 -0.000976562 459.905 69.471 496.075 166.956H144.695Z" fill="#6DA544"/>
<path d="M0 255.999C0 366.07 69.473 459.905 166.957 496.076V15.9219C69.473 52.0929 0 145.928 0 255.999Z" fill="#A2001D"/>
</g>
<defs>
<clipPath id="clip0_105_2747">
<rect width="512" height="512" fill="white" transform="translate(0 -0.000976562)"/>
</clipPath>
</defs>
</svg>
