<svg width="512" height="512" viewBox="0 0 512 512" fill="none" xmlns="http://www.w3.org/2000/svg">
<g clip-path="url(#clip0_105_1469)">
<path d="M256 512C397.385 512 512 397.385 512 256C512 114.615 397.385 0 256 0C114.615 0 0 114.615 0 256C0 397.385 114.615 512 256 512Z" fill="#0052B4"/>
<path d="M256.003 100.174L264.292 125.683H291.112L269.413 141.448L277.702 166.957L256.003 151.191L234.303 166.957L242.592 141.448L220.893 125.683H247.714L256.003 100.174Z" fill="#FFDA44"/>
<path d="M145.814 145.814L169.714 157.99L188.679 139.026L184.482 165.516L208.381 177.693L181.89 181.889L177.694 208.381L165.517 184.482L139.027 188.679L157.992 169.714L145.814 145.814Z" fill="#FFDA44"/>
<path d="M100.176 256L125.685 247.711V220.89L141.449 242.59L166.959 234.301L151.192 256L166.959 277.699L141.449 269.411L125.685 291.11V264.289L100.176 256Z" fill="#FFDA44"/>
<path d="M145.814 366.186L157.991 342.286L139.027 323.321L165.518 327.519L177.693 303.62L181.89 330.111L208.38 334.307L184.484 346.484L188.679 372.974L169.714 354.009L145.814 366.186Z" fill="#FFDA44"/>
<path d="M256.003 411.826L247.713 386.317H220.893L242.593 370.552L234.303 345.045L256.003 360.809L277.702 345.045L269.413 370.552L291.112 386.317H264.291L256.003 411.826Z" fill="#FFDA44"/>
<path d="M366.188 366.186L342.289 354.01L323.323 372.975L327.52 346.483L303.623 334.307L330.113 330.111L334.309 303.62L346.485 327.519L372.975 323.321L354.01 342.288L366.188 366.186Z" fill="#FFDA44"/>
<path d="M411.826 256L386.317 264.289V291.11L370.552 269.41L345.045 277.699L360.81 256L345.045 234.301L370.553 242.59L386.317 220.89V247.712L411.826 256Z" fill="#FFDA44"/>
<path d="M366.188 145.814L354.011 169.714L372.976 188.679L346.484 184.481L334.309 208.38L330.113 181.889L303.623 177.692L327.52 165.516L323.323 139.027L342.29 157.991L366.188 145.814Z" fill="#FFDA44"/>
</g>
<defs>
<clipPath id="clip0_105_1469">
<rect width="512" height="512" fill="white"/>
</clipPath>
</defs>
</svg>
