<svg width="512" height="513" viewBox="0 0 512 513" fill="none" xmlns="http://www.w3.org/2000/svg">
<g clip-path="url(#clip0_105_2589)">
<path d="M25.402 145.277C9.128 178.933 0 216.691 0 256.581C0 296.471 9.128 334.229 25.402 367.885L256 390.146L486.598 367.885C502.872 334.229 512 296.471 512 256.581C512 216.691 502.872 178.933 486.598 145.277L256 123.016L25.402 145.277Z" fill="#F0F0F0"/>
<path d="M25.4102 367.885C66.8172 453.515 154.506 512.581 255.999 512.581C357.492 512.581 445.182 453.515 486.588 367.885H25.4102Z" fill="#6DA544"/>
<path d="M25.4102 145.277H486.588C445.182 59.6471 357.492 0.581055 255.999 0.581055C154.506 0.581055 66.8172 59.6471 25.4102 145.277Z" fill="#D80027"/>
<path d="M211.479 323.364H300.523V285.52L282.714 294.424L256.001 267.711L229.288 294.424L211.479 285.52V323.364Z" fill="#FFDA44"/>
<path d="M160.532 278.842L164.677 291.596H178.087L167.237 299.479L171.382 312.233L160.532 304.351L149.682 312.233L153.827 299.479L142.977 291.596H156.387L160.532 278.842Z" fill="#FFDA44"/>
<path d="M173.381 234.32L177.526 247.074H190.936L180.086 254.957L184.23 267.711L173.381 259.829L162.531 267.711L166.676 254.957L155.826 247.074H169.236L173.381 234.32Z" fill="#FFDA44"/>
<path d="M210.112 200.929L214.257 213.683H227.666L216.818 221.566L220.961 234.32L210.112 226.438L199.263 234.32L203.407 221.566L192.557 213.683H205.968L210.112 200.929Z" fill="#FFDA44"/>
<path d="M351.467 278.842L347.322 291.596H333.912L344.762 299.479L340.617 312.233L351.467 304.351L362.316 312.233L358.172 299.479L369.022 291.596H355.612L351.467 278.842Z" fill="#FFDA44"/>
<path d="M338.619 234.32L334.474 247.074H321.064L331.914 254.957L327.769 267.711L338.619 259.829L349.469 267.711L345.324 254.957L356.174 247.074H342.764L338.619 234.32Z" fill="#FFDA44"/>
<path d="M301.886 200.929L297.741 213.683H284.332L295.18 221.566L291.036 234.32L301.886 226.438L312.735 234.32L308.591 221.566L319.44 213.683H306.03L301.886 200.929Z" fill="#FFDA44"/>
<path d="M256 184.232L260.145 196.986H273.555L262.705 204.869L266.85 217.623L256 209.741L245.15 217.623L249.295 204.869L238.445 196.986H251.855L256 184.232Z" fill="#FFDA44"/>
</g>
<defs>
<clipPath id="clip0_105_2589">
<rect width="512" height="512" fill="white" transform="translate(0 0.581055)"/>
</clipPath>
</defs>
</svg>
