<svg width="513" height="512" viewBox="0 0 513 512" fill="none" xmlns="http://www.w3.org/2000/svg">
<g clip-path="url(#clip0_105_2061)">
<path d="M256.988 512C398.373 512 512.988 397.385 512.988 256C512.988 114.615 398.373 0 256.988 0C115.603 0 0.988281 114.615 0.988281 256C0.988281 397.385 115.603 512 256.988 512Z" fill="#F0F0F0"/>
<path d="M511.486 283.826L511.48 283.818L511.479 283.826H511.486Z" fill="#0052B4"/>
<path d="M511.478 283.826C511.478 283.824 511.479 283.822 511.479 283.818L230.734 1.33105C218.069 2.62205 205.676 4.83606 193.625 7.90506C82.8863 36.1001 0.988281 256 0.988281 256C0.988281 256 359.386 495.835 400.273 468.164C408.454 462.628 416.298 456.631 423.766 450.211L257.383 283.826H511.478Z" fill="#0052B4"/>
<path d="M446.205 256L197.233 7.02905C84.6763 33.9461 0.988281 135.192 0.988281 256C0.988281 397.384 115.604 512 256.988 512C310.617 512 360.385 495.498 401.517 467.311L190.205 256H446.205Z" fill="#D80027"/>
<path d="M244.461 377.993L213.196 363.287L229.845 333.008L195.895 339.503L191.593 305.205L167.946 330.43L144.299 305.205L139.996 339.503L106.047 333.007L122.696 363.287L91.4297 377.993L122.696 392.698L106.047 422.978L139.998 416.484L144.298 450.78L167.946 425.555L191.593 450.78L195.895 416.484L229.844 422.979L213.195 392.7L244.461 377.993Z" fill="#F0F0F0"/>
<path d="M223.598 141.983L200.858 131.288L212.967 109.265L188.274 113.989L185.145 89.043L167.946 107.39L150.747 89.043L147.617 113.989L122.924 109.265L135.034 131.288L112.293 141.983L167.946 153.115L223.598 141.983Z" fill="#F0F0F0"/>
<path d="M234.728 141.983C234.728 178.866 204.828 208.766 167.945 208.766C131.062 208.766 101.162 178.866 101.162 141.983" fill="#F0F0F0"/>
</g>
<defs>
<clipPath id="clip0_105_2061">
<rect width="512" height="512" fill="white" transform="translate(0.988281)"/>
</clipPath>
</defs>
</svg>
