<svg width="512" height="512" viewBox="0 0 512 512" fill="none" xmlns="http://www.w3.org/2000/svg">
<g clip-path="url(#clip0_105_1920)">
<path d="M256 512C397.385 512 512 397.385 512 256C512 114.615 397.385 0 256 0C114.615 0 0 114.615 0 256C0 397.385 114.615 512 256 512Z" fill="#F0F0F0"/>
<path d="M509.806 222.608C502.744 168.622 478.494 116.456 437.019 74.9809C395.544 33.5059 343.377 9.25487 289.391 2.19287L289.392 222.608H509.806Z" fill="#0052B4"/>
<path d="M222.608 2.19287C168.622 9.25487 116.455 33.5049 74.9804 74.9799C33.5064 116.456 9.25536 168.623 2.19336 222.61L222.609 222.609L222.608 2.19287Z" fill="#0052B4"/>
<path d="M2.19336 289.392C9.25536 343.378 33.5064 395.546 74.9804 437.02C116.455 478.494 168.621 502.744 222.609 509.809L222.608 289.394L2.19336 289.392Z" fill="#0052B4"/>
<path d="M289.393 509.806C343.379 502.744 395.545 478.494 437.02 437.019C478.495 395.544 502.745 343.378 509.807 289.392H289.393V509.806Z" fill="#0052B4"/>
<path d="M343.389 162.438C343.389 159.034 346.156 156.267 349.561 156.267H362.785C383.689 156.267 400.696 139.261 400.696 118.358C400.696 97.4552 383.69 80.4482 362.785 80.4482H350.227C346.128 77.3692 340.629 75.4702 334.563 75.4702C321.91 75.4702 311.653 83.6752 311.653 93.7972C311.653 103.821 321.714 111.953 334.198 112.111L334.192 112.184H362.785C366.19 112.184 368.957 114.952 368.957 118.356C368.957 121.76 366.19 124.527 362.785 124.527H349.561C328.657 124.527 311.652 141.533 311.652 162.436C311.652 183.339 328.656 200.346 349.561 200.346H400.695V168.608H349.561C346.156 168.609 343.389 165.842 343.389 162.438V162.438Z" fill="#F0F0F0"/>
<path d="M143.043 162.438C143.043 159.034 145.81 156.267 149.215 156.267H162.439C183.343 156.267 200.35 139.261 200.35 118.358C200.35 97.4552 183.344 80.4482 162.439 80.4482H149.881C145.782 77.3692 140.283 75.4702 134.217 75.4702C121.564 75.4702 111.307 83.6752 111.307 93.7972C111.307 103.821 121.368 111.953 133.852 112.111L133.846 112.184H162.44C165.845 112.184 168.612 114.952 168.612 118.356C168.612 121.76 165.845 124.527 162.44 124.527H149.216C128.312 124.527 111.307 141.533 111.307 162.436C111.307 183.339 128.311 200.346 149.216 200.346H200.349V168.608H149.215C145.81 168.609 143.043 165.842 143.043 162.438V162.438Z" fill="#F0F0F0"/>
<path d="M343.388 398.62C343.388 395.216 346.155 392.449 349.56 392.449H362.784C383.688 392.449 400.695 375.443 400.695 354.54C400.695 333.637 383.689 316.63 362.784 316.63H350.226C346.127 313.551 340.628 311.652 334.562 311.652C321.908 311.652 311.651 319.858 311.651 329.979C311.651 340.003 321.712 348.135 334.196 348.293L334.19 348.366H362.783C366.188 348.366 368.955 351.134 368.955 354.538C368.955 357.942 366.188 360.709 362.783 360.709H349.559C328.655 360.709 311.65 377.715 311.65 398.618C311.65 419.521 328.654 436.528 349.559 436.528H400.694V404.791H349.56C346.155 404.792 343.388 402.023 343.388 398.62V398.62Z" fill="#F0F0F0"/>
<path d="M143.042 398.62C143.042 395.216 145.809 392.449 149.214 392.449H162.438C183.342 392.449 200.349 375.443 200.349 354.54C200.349 333.637 183.343 316.63 162.438 316.63H149.88C145.781 313.551 140.282 311.652 134.216 311.652C121.562 311.652 111.305 319.858 111.305 329.979C111.305 340.003 121.366 348.135 133.85 348.293L133.844 348.366H162.438C165.843 348.366 168.61 351.134 168.61 354.538C168.61 357.942 165.843 360.709 162.438 360.709H149.214C128.31 360.709 111.305 377.715 111.305 398.618C111.305 419.521 128.309 436.528 149.214 436.528H200.348V404.791H149.214C145.809 404.792 143.042 402.023 143.042 398.62Z" fill="#F0F0F0"/>
</g>
<defs>
<clipPath id="clip0_105_1920">
<rect width="512" height="512" fill="white"/>
</clipPath>
</defs>
</svg>
