<svg width="512" height="512" viewBox="0 0 512 512" fill="none" xmlns="http://www.w3.org/2000/svg">
<g clip-path="url(#clip0_105_1903)">
<path d="M256 512C397.385 512 512 397.385 512 256C512 114.615 397.385 0 256 0C114.615 0 0 114.615 0 256C0 397.385 114.615 512 256 512Z" fill="#D80027"/>
<path d="M89.043 133.565H422.956V378.435H89.043V133.565Z" fill="#6DA544"/>
<path d="M297.226 328.348C257.27 328.348 224.878 295.956 224.878 256C224.878 216.044 257.27 183.652 297.226 183.652C309.684 183.652 321.407 186.802 331.641 192.348C315.586 176.647 293.631 166.956 269.4 166.956C220.224 166.956 180.357 206.822 180.357 255.999C180.357 305.176 220.224 345.042 269.4 345.042C293.631 345.042 315.587 335.351 331.641 319.65C321.407 325.198 309.684 328.348 297.226 328.348Z" fill="#F0F0F0"/>
</g>
<defs>
<clipPath id="clip0_105_1903">
<rect width="512" height="512" fill="white"/>
</clipPath>
</defs>
</svg>
