<svg width="512" height="512" viewBox="0 0 512 512" fill="none" xmlns="http://www.w3.org/2000/svg">
<g clip-path="url(#clip0_105_1975)">
<path d="M367.305 25.402C333.649 9.128 295.891 0 256.001 0C216.111 0 178.353 9.128 144.697 25.402L122.436 256L144.697 486.598C178.353 502.872 216.111 512 256.001 512C295.891 512 333.649 502.872 367.305 486.598L389.566 256L367.305 25.402Z" fill="#FFDA44"/>
<path d="M144.696 25.4109C59.066 66.8179 0 154.507 0 256C0 357.493 59.066 445.182 144.696 486.589V25.4109Z" fill="#0052B4"/>
<path d="M367.305 25.4109V486.589C452.935 445.182 512.001 357.493 512.001 256C512.001 154.507 452.935 66.8179 367.305 25.4109Z" fill="#D80027"/>
<path d="M345.043 201.419H283.826C283.826 186.051 271.368 173.593 256 173.593C240.632 173.593 228.174 186.051 228.174 201.419H166.957C166.957 216.55 180.138 228.815 195.267 228.815H194.355C194.355 243.947 206.621 256.214 221.753 256.214C221.753 269.611 231.375 280.743 244.083 283.123L222.493 331.865C232.838 336.07 244.144 338.407 256 338.407C267.855 338.407 279.162 336.07 289.506 331.865L267.917 283.123C280.625 280.743 290.247 269.611 290.247 256.214C305.379 256.214 317.645 243.947 317.645 228.815H316.732C331.863 228.815 345.043 216.549 345.043 201.419V201.419Z" fill="#FF9811"/>
<path d="M256 239.304L219.826 256V289.391L256 311.652L292.174 289.391V256L256 239.304Z" fill="#0052B4"/>
<path d="M219.826 222.609H292.174V256H219.826V222.609Z" fill="#D80027"/>
</g>
<defs>
<clipPath id="clip0_105_1975">
<rect width="512" height="512" fill="white"/>
</clipPath>
</defs>
</svg>
