<svg width="512" height="512" viewBox="0 0 512 512" fill="none" xmlns="http://www.w3.org/2000/svg">
<g clip-path="url(#clip0_105_2860)">
<path d="M256 511.999C397.385 511.999 512 397.384 512 255.999C512 114.614 397.385 -0.000976562 256 -0.000976562C114.615 -0.000976562 0 114.614 0 255.999C0 397.384 114.615 511.999 256 511.999Z" fill="#FCFCFC"/>
<path d="M299.478 178.845C299.478 154.833 280.012 135.367 255.999 135.367C231.986 135.367 212.52 154.833 212.52 178.845H116.869C116.869 202.486 137.463 221.653 161.104 221.653H159.68C159.68 245.296 178.844 264.464 202.489 264.464C202.489 285.397 217.523 302.791 237.378 306.509L237.267 306.759H274.732L274.621 306.509C294.477 302.789 309.51 285.396 309.51 264.464C333.154 264.464 352.319 245.296 352.319 221.653H350.893C374.534 221.653 395.129 202.486 395.129 178.845H299.478Z" fill="#FFDA44"/>
<path d="M236.886 302.323L209.928 363.186C224.152 368.968 239.699 372.182 256 372.182C272.301 372.182 287.848 368.969 302.071 363.186L275.114 302.323H236.886Z" fill="#FFDA44"/>
<path d="M200.348 200.226V275.117C200.348 317.715 256 330.769 256 330.769C256 330.769 311.652 317.715 311.652 275.117V200.226H200.348Z" fill="#F0F0F0"/>
<path d="M62.0787 257.801L92.1777 341.985L121.964 257.801H144.696L101.27 369.105H83.0847L39.3477 257.801H62.0787Z" fill="#338AF3"/>
<path d="M411.826 369.105V257.801H433.459V369.105H411.826Z" fill="#338AF3"/>
<path d="M222.609 224.41V315.164C230.26 320.795 238.492 324.668 244.87 327.148V224.41H222.609Z" fill="#D80027"/>
<path d="M289.392 224.41V315.164C281.741 320.795 273.509 324.668 267.131 327.148V224.41H289.392Z" fill="#D80027"/>
<path d="M200.348 200.224H311.652V235.54H200.348V200.224Z" fill="#0052B4"/>
</g>
<defs>
<clipPath id="clip0_105_2860">
<rect width="512" height="512" fill="white" transform="translate(0 -0.000976562)"/>
</clipPath>
</defs>
</svg>
