<svg width="513" height="512" viewBox="0 0 513 512" fill="none" xmlns="http://www.w3.org/2000/svg">
<g clip-path="url(#clip0_105_2125)">
<path d="M368.293 25.402C334.637 9.128 296.88 0 256.989 0C217.098 0 179.341 9.128 145.685 25.402L123.424 256L145.685 486.598C179.341 502.872 217.098 512 256.989 512C296.88 512 334.637 502.872 368.293 486.598L390.554 256L368.293 25.402Z" fill="#F0F0F0"/>
<path d="M145.684 25.4109C60.0533 66.8169 0.988281 154.506 0.988281 256C0.988281 357.494 60.0533 445.183 145.684 486.589V25.4109Z" fill="#6DA544"/>
<path d="M368.293 25.4109V486.589C453.924 445.183 512.989 357.493 512.989 256C512.989 154.507 453.924 66.8169 368.293 25.4109Z" fill="#6DA544"/>
<path d="M323.771 333.913L256.988 122.435L190.205 333.913H240.292V389.565H273.684V333.913H323.771Z" fill="#6DA544"/>
</g>
<defs>
<clipPath id="clip0_105_2125">
<rect width="512" height="512" fill="white" transform="translate(0.988281)"/>
</clipPath>
</defs>
</svg>
