<svg width="512" height="512" viewBox="0 0 512 512" fill="none" xmlns="http://www.w3.org/2000/svg">
<g clip-path="url(#clip0_105_886)">
<path d="M512 256C512 224.686 506.368 194.689 496.077 166.957L256 155.826L15.923 166.956C5.633 194.689 0 224.686 0 256C0 287.314 5.633 317.311 15.923 345.043L256 356.174L496.077 345.044C506.368 317.311 512 287.314 512 256Z" fill="#D80027"/>
<path d="M256 512C366.071 512 459.906 442.528 496.077 345.043H15.9229C52.0939 442.528 145.929 512 256 512Z" fill="#6DA544"/>
<path d="M15.9229 166.957H496.078C459.906 69.472 366.071 0 256 0C145.929 0 52.0939 69.472 15.9229 166.957V166.957Z" fill="#338AF3"/>
<path d="M261.565 328.348C221.609 328.348 189.217 295.956 189.217 256C189.217 216.044 221.609 183.652 261.565 183.652C274.023 183.652 285.746 186.802 295.98 192.348C279.924 176.647 257.968 166.956 233.739 166.956C184.561 166.956 144.696 206.822 144.696 255.999C144.696 305.176 184.562 345.042 233.739 345.042C257.969 345.042 279.925 335.351 295.98 319.65C285.746 325.198 274.023 328.348 261.565 328.348Z" fill="#F0F0F0"/>
<path d="M317.218 205.913L326.801 232.864L352.635 220.582L340.354 246.416L367.305 256L340.354 265.584L352.635 291.418L326.801 279.136L317.218 306.087L307.636 279.136L281.801 291.418L294.083 265.584L267.131 256L294.083 246.416L281.801 220.582L307.636 232.864L317.218 205.913Z" fill="#F0F0F0"/>
</g>
<defs>
<clipPath id="clip0_105_886">
<rect width="512" height="512" fill="white"/>
</clipPath>
</defs>
</svg>
