<svg width="512" height="512" viewBox="0 0 512 512" fill="none" xmlns="http://www.w3.org/2000/svg">
<g clip-path="url(#clip0_105_1845)">
<path d="M25.402 144.696C9.128 178.352 0 216.109 0 256C0 295.891 9.128 333.648 25.402 367.304L256 389.565L486.598 367.304C502.872 333.648 512 295.891 512 256C512 216.109 502.872 178.352 486.598 144.696L256 122.435L25.402 144.696Z" fill="black"/>
<path d="M25.4102 367.304C66.8162 452.935 154.505 512 255.999 512C357.492 512 445.182 452.935 486.588 367.304H25.4102Z" fill="#496E2D"/>
<path d="M25.4102 144.696H486.588C445.182 59.065 357.492 0 255.999 0C154.505 0 66.8162 59.065 25.4102 144.696Z" fill="#D80027"/>
<path d="M315.586 209.186L336.59 238.131L370.607 227.101L349.569 256.021L370.571 284.965L336.567 273.893L315.529 302.813L315.551 267.052L281.545 255.98L315.563 244.95L315.586 209.186Z" fill="#F0F0F0"/>
<path d="M258.262 328.348C218.306 328.348 185.914 295.956 185.914 256C185.914 216.044 218.306 183.652 258.262 183.652C270.72 183.652 282.443 186.802 292.677 192.348C276.621 176.647 254.665 166.956 230.436 166.956C181.258 166.956 141.393 206.822 141.393 255.999C141.393 305.176 181.259 345.042 230.436 345.042C254.666 345.042 276.622 335.351 292.677 319.65C282.442 325.198 270.721 328.348 258.262 328.348Z" fill="#F0F0F0"/>
</g>
<defs>
<clipPath id="clip0_105_1845">
<rect width="512" height="512" fill="white"/>
</clipPath>
</defs>
</svg>
