<svg width="512" height="512" viewBox="0 0 512 512" fill="none" xmlns="http://www.w3.org/2000/svg">
<g clip-path="url(#clip0_105_2517)">
<path d="M255.79 511.581C397.059 511.581 511.58 397.06 511.58 255.791C511.58 114.522 397.059 0.000976562 255.79 0.000976562C114.521 0.000976562 0 114.522 0 255.791C0 397.06 114.521 511.581 255.79 511.581Z" fill="#F0F0F0"/>
<path d="M456.715 205.745H372.564C372.564 190.39 360.116 177.942 344.761 177.942L322.518 222.427C322.518 222.427 346.244 289.155 345.502 289.155H373.305C388.661 289.155 401.108 276.708 401.108 261.352C416.464 261.352 428.911 248.905 428.911 233.549H427.985C443.34 233.548 456.715 221.101 456.715 205.745Z" fill="#ACABB1"/>
<path d="M54.8652 205.745H139.016C139.016 190.39 151.464 177.942 166.819 177.942L189.062 222.427C189.062 222.427 165.336 289.155 166.078 289.155H138.275C122.919 289.155 110.472 276.708 110.472 261.352C95.1162 261.352 82.6692 248.905 82.6692 233.549H83.5952C68.2392 233.548 54.8652 221.101 54.8652 205.745V205.745Z" fill="#ACABB1"/>
<path d="M344.76 355.882V367.003H166.819V355.882H122.334V400.367H166.819V411.488H344.76V400.367H389.245V355.882H344.76Z" fill="#FFDA44"/>
<path d="M166.818 177.941V289.153C166.818 357.256 255.788 378.124 255.788 378.124C255.788 378.124 344.758 357.256 344.758 289.153V177.941L255.788 166.82L166.818 177.941Z" fill="#0052B4"/>
<path d="M166.82 222.431H344.76V289.159H166.82V222.431Z" fill="#D80027"/>
<path d="M300.273 122.335V139.017L289.152 144.578L278.031 133.456V100.092H233.546V133.456L222.425 144.578L211.303 139.017V122.335H166.818V177.941H344.759V122.335H300.273Z" fill="#FFDA44"/>
</g>
<defs>
<clipPath id="clip0_105_2517">
<rect width="511.58" height="511.58" fill="white" transform="translate(0 0.000976562)"/>
</clipPath>
</defs>
</svg>
