<svg width="513" height="512" viewBox="0 0 513 512" fill="none" xmlns="http://www.w3.org/2000/svg">
<g clip-path="url(#clip0_105_2088)">
<path d="M256.988 512C398.373 512 512.988 397.385 512.988 256C512.988 114.615 398.373 0 256.988 0C115.603 0 0.988281 114.615 0.988281 256C0.988281 397.385 115.603 512 256.988 512Z" fill="#F0F0F0"/>
<path d="M256.989 0C155.495 0 67.7986 59.065 26.3906 144.696H487.586C446.179 59.065 358.482 0 256.989 0V0Z" fill="#338AF3"/>
<path d="M256.989 512C358.482 512 446.179 452.935 487.587 367.304H26.3906C67.7986 452.935 155.495 512 256.989 512Z" fill="#338AF3"/>
<path d="M256.989 178.087C213.959 178.087 179.076 212.97 179.076 256C179.076 299.03 213.959 333.913 256.989 333.913C300.019 333.913 334.902 299.03 334.902 256C334.902 212.97 300.019 178.087 256.989 178.087ZM256.989 300.522C232.401 300.522 212.467 280.59 212.467 256C212.467 231.41 232.4 211.478 256.989 211.478C281.578 211.478 301.511 231.41 301.511 256C301.511 280.59 281.577 300.522 256.989 300.522Z" fill="#FFDA44"/>
<path d="M295.546 267.13L256.988 256L218.43 267.13L205.578 289.391H308.397L295.546 267.13Z" fill="#0052B4"/>
<path d="M256.988 200.348L231.283 244.87L256.988 256L282.693 244.87L256.988 200.348Z" fill="#338AF3"/>
<path d="M218.43 267.13H295.546L282.693 244.87H231.283L218.43 267.13Z" fill="#6DA544"/>
</g>
<defs>
<clipPath id="clip0_105_2088">
<rect width="512" height="512" fill="white" transform="translate(0.988281)"/>
</clipPath>
</defs>
</svg>
