<svg width="512" height="522" viewBox="0 0 512 522" fill="none" xmlns="http://www.w3.org/2000/svg">
<g clip-path="url(#clip0_105_760)">
<path d="M256 522C397.385 522 512 405.146 512 261C512 116.854 397.385 0 256 0C114.615 0 0 116.854 0 261C0 405.146 114.615 522 256 522Z" fill="#F0F0F0"/>
<path d="M435.139 74.5726C388.966 28.449 325.748 0 256.001 0C233.74 0 168.607 28.449 122.436 74.5726H435.139Z" fill="#6DA544"/>
<path d="M256 223.715H509.388C505.694 197.385 498.151 172.325 487.35 149.143H244.87L256 223.715Z" fill="#6DA544"/>
<path d="M24.6513 372.858H487.349C498.151 349.677 505.694 324.615 509.388 298.285H2.6123C6.3073 324.616 13.8483 349.678 24.6513 372.858V372.858Z" fill="#6DA544"/>
<path d="M76.8623 447.427C123.035 493.551 186.253 522 256 522C325.747 522 388.965 493.551 435.138 447.427H76.8623Z" fill="#6DA544"/>
<path d="M256 0C127.034 0 20.3603 97.2337 2.6123 223.715H256V0Z" fill="#D80027"/>
<path d="M128 200.1L116.87 177.406V132.014L144.696 109.318L172.522 132.014V166.057L183.652 154.71V177.406L161.391 200.1H128Z" fill="#F0F0F0"/>
<path d="M68.1353 130.5L71.0823 139.747H80.6183L72.9033 145.464L75.8513 154.71L68.1353 148.994L60.4193 154.71L63.3673 145.464L55.6523 139.747H65.1883L68.1353 130.5Z" fill="#F0F0F0"/>
<path d="M90.3961 107.804L93.3431 117.051H102.88L95.1641 122.768L98.1111 132.014L90.3961 126.3L82.6811 132.014L85.6291 122.768L77.9131 117.051H87.4481L90.3961 107.804Z" fill="#F0F0F0"/>
<path d="M112.658 85.1084L115.605 94.3555H125.14L117.426 100.072L120.372 109.318L112.658 103.604L104.942 109.318L107.889 100.072L100.175 94.3555H109.71L112.658 85.1084Z" fill="#F0F0F0"/>
<path d="M221.256 130.5L218.309 139.747H208.774L216.488 145.464L213.541 154.71L221.256 148.994L228.972 154.71L226.025 145.464L233.739 139.747H224.204L221.256 130.5Z" fill="#F0F0F0"/>
<path d="M198.996 107.804L196.049 117.051H186.514L194.228 122.768L191.281 132.014L198.996 126.3L206.712 132.014L203.764 122.768L211.479 117.051H201.944L198.996 107.804Z" fill="#F0F0F0"/>
<path d="M176.735 85.1084L173.787 94.3555H164.252L171.966 100.072L169.019 109.318L176.735 103.604L184.45 109.318L181.503 100.072L189.217 94.3555H179.682L176.735 85.1084Z" fill="#F0F0F0"/>
<path d="M144.696 73.7612L141.748 83.0084H132.213L139.927 88.7239L136.98 97.97L144.696 92.2555L152.411 97.97L149.464 88.7239L157.178 83.0084H147.643L144.696 73.7612Z" fill="#F0F0F0"/>
</g>
<defs>
<clipPath id="clip0_105_760">
<rect width="512" height="522" fill="white"/>
</clipPath>
</defs>
</svg>
