<svg width="513" height="512" viewBox="0 0 513 512" fill="none" xmlns="http://www.w3.org/2000/svg">
<g clip-path="url(#clip0_105_2576)">
<path d="M256.578 512C397.963 512 512.578 397.385 512.578 256C512.578 114.615 397.963 0 256.578 0C115.193 0 0.578125 114.615 0.578125 256C0.578125 397.385 115.193 512 256.578 512Z" fill="#F0F0F0"/>
<path d="M256.579 0C146.508 0 52.673 69.472 16.502 166.957H496.657C460.485 69.472 366.65 0 256.579 0V0Z" fill="#D80027"/>
<path d="M256.579 512C366.65 512 460.485 442.528 496.656 345.043H16.502C52.673 442.528 146.508 512 256.579 512Z" fill="black"/>
<path d="M153.539 194.783L167.352 237.295H212.055L175.89 263.573L189.704 306.087L153.539 279.812L117.374 306.087L131.188 263.573L95.0234 237.295H139.726L153.539 194.783Z" fill="#6DA544"/>
<path d="M359.616 194.783L373.429 237.295H418.133L381.967 263.573L395.781 306.087L359.616 279.812L323.451 306.087L337.265 263.573L301.1 237.295H345.803L359.616 194.783Z" fill="#6DA544"/>
</g>
<defs>
<clipPath id="clip0_105_2576">
<rect width="512" height="512" fill="white" transform="translate(0.578125)"/>
</clipPath>
</defs>
</svg>
